<svg xmlns="http://www.w3.org/2000/svg" fill="none" viewBox="0 0 1684 1199">
  <path stroke="url(#a)" stroke-opacity=".22" stroke-width="2"
    d="M643.18 989.749c-294.041 44.581-521.783-280.93-598.898-449.261C-217.85-5.322 814.778-129.764 953.83 339.914c139.05 469.678 642.73-426.795 716.48-133.353 73.74 293.443-204.3 823.459-430.23 960.569-225.93 137.12-229.35-233.112-596.9-177.381Z" />
  <path stroke="url(#b)" stroke-opacity=".22" stroke-width="2"
    d="M645.047 962.298C357.773 1006.03 135.459 687.979 60.211 523.489-195.586-9.863 813.26-132.029 948.859 326.974 1084.46 785.976 1576.97-90.518 1648.86 196.261c71.89 286.78-200.01 804.979-420.79 939.109-220.78 134.13-223.93-227.735-583.023-173.072Z" />
  <path stroke="url(#c)" stroke-opacity=".22" stroke-width="2"
    d="M647.016 934.993C366.332 977.579 148.963 666.846 75.365 506.157-174.813-14.875 810.904-133.754 943.602 314.609 1076.3 762.973 1557.16-92.878 1627.53 187.249c70.37 280.126-195.08 786.126-410.75 917.041-215.67 130.91-218.91-222.529-569.764-169.297Z" />
  <path stroke="url(#d)" stroke-opacity=".22" stroke-width="2"
    d="M649.402 907.862C375.356 949.513 163.207 646.119 91.388 489.215c-244.133-508.754 718.266-625.07 847.718-187.254 129.454 437.817 599.124-398.07 667.764-124.53 68.64 273.54-190.64 767.733-401.24 895.619-210.593 127.89-213.671-217.252-556.228-165.188Z" />
  <path stroke="url(#e)" stroke-opacity=".22" stroke-width="2"
    d="M651.367 880.557c-267.456 40.507-474.659-255.571-544.828-408.674C-131.977-24.551 807.294-137.58 933.845 289.597 1060.4 716.774 1518.42-98.468 1585.54 168.419s-185.71 748.883-391.2 873.551c-205.489 124.66-208.653-212.046-542.973-161.413Z" />
  <path stroke="url(#f)" stroke-opacity=".22" stroke-width="2"
    d="M653.753 853.426c-260.818 39.572-462.801-249.168-531.191-398.485-232.47-484.155 683.482-594.622 806.787-177.992 123.301 416.63 570.141-378.648 635.521-118.348 65.39 260.301-181.27 730.489-381.68 852.139-200.408 121.64-203.415-206.78-529.437-157.314Z" />
  <path stroke="url(#g)" stroke-opacity=".22" stroke-width="2"
    d="M655.722 826.121c-254.229 38.428-451.266-242.996-518.006-388.512C-89.136-34.227 803.688-141.406 924.092 264.585 1044.5 670.576 1479.68-104.059 1543.55 149.589c63.87 253.648-176.35 711.639-371.65 830.062-195.301 118.419-198.393-201.565-516.178-153.53Z" />
  <path stroke="url(#h)" stroke-opacity=".22" stroke-width="2"
    d="M658.108 798.988C410.518 836.481 218.7 562.395 153.74 420.665-67.067-38.892 802.438-143.509 919.596 251.935 1036.75 647.379 1460.75-107.291 1522.88 139.77c62.14 247.061-171.9 693.245-362.13 808.646-190.22 115.404-193.154-196.295-502.642-149.428Z" />
  <path stroke="url(#i)" stroke-opacity=".22" stroke-width="2"
    d="M659.079 772.138C418.047 808.827 231.514 541.973 168.377 403.96-46.249-43.54 800.208-146.033 913.984 239.085c113.776 385.117 527.006-350.283 587.326-109.666 60.32 240.617-167.81 675.396-353.05 787.936-185.244 112.535-187.89-191.078-489.181-145.217Z" />
  <defs>
    <linearGradient id="a" x1="673.667" x2="392.497" y1="-255.031" y2="581.475"
      gradientUnits="userSpaceOnUse">
      <stop stop-color="#0081F1" />
      <stop offset="1" stop-color="#00B2F1" />
    </linearGradient>
    <linearGradient id="b" x1="673.667" x2="392.497" y1="-255.031" y2="581.475"
      gradientUnits="userSpaceOnUse">
      <stop stop-color="#0081F1" />
      <stop offset="1" stop-color="#00B2F1" />
    </linearGradient>
    <linearGradient id="c" x1="673.667" x2="392.497" y1="-255.031" y2="581.475"
      gradientUnits="userSpaceOnUse">
      <stop stop-color="#0081F1" />
      <stop offset="1" stop-color="#00B2F1" />
    </linearGradient>
    <linearGradient id="d" x1="673.667" x2="392.497" y1="-255.031" y2="581.475"
      gradientUnits="userSpaceOnUse">
      <stop stop-color="#0081F1" />
      <stop offset="1" stop-color="#00B2F1" />
    </linearGradient>
    <linearGradient id="e" x1="673.667" x2="392.497" y1="-255.031" y2="581.475"
      gradientUnits="userSpaceOnUse">
      <stop stop-color="#0081F1" />
      <stop offset="1" stop-color="#00B2F1" />
    </linearGradient>
    <linearGradient id="f" x1="673.667" x2="392.497" y1="-255.031" y2="581.475"
      gradientUnits="userSpaceOnUse">
      <stop stop-color="#0081F1" />
      <stop offset="1" stop-color="#00B2F1" />
    </linearGradient>
    <linearGradient id="g" x1="673.667" x2="392.497" y1="-255.031" y2="581.475"
      gradientUnits="userSpaceOnUse">
      <stop stop-color="#0081F1" />
      <stop offset="1" stop-color="#00B2F1" />
    </linearGradient>
    <linearGradient id="h" x1="673.667" x2="392.497" y1="-255.031" y2="581.475"
      gradientUnits="userSpaceOnUse">
      <stop stop-color="#0081F1" />
      <stop offset="1" stop-color="#00B2F1" />
    </linearGradient>
    <linearGradient id="i" x1="673.667" x2="392.497" y1="-255.031" y2="581.475"
      gradientUnits="userSpaceOnUse">
      <stop stop-color="#0081F1" />
      <stop offset="1" stop-color="#00B2F1" />
    </linearGradient>
  </defs>
</svg>
