<svg viewBox="0 0 32 32">
  <ellipse cx="19.196" cy="29.165" rx="2.208" ry="2.205" />
  <ellipse cx="24.599" cy="27.969" rx="1.892" ry="1.89" />
  <ellipse cx="28.51" cy="24.903" rx="1.388" ry="1.386" />
  <ellipse cx="30.696" cy="21.753" rx=".841" ry=".84" />
  <ellipse cx="31.495" cy="19.275" rx=".505" ry=".504" />
  <ellipse cx="2.208" cy="2.205" rx="2.208" ry="2.205"
    transform="matrix(1 0 0 -1 .63 21.334)" />
  <ellipse cx="1.892" cy="1.89" rx="1.892" ry="1.89"
    transform="matrix(1 0 0 -1 2.145 26.289)" />
  <ellipse cx="1.388" cy="1.386" rx="1.388" ry="1.386"
    transform="matrix(1 0 0 -1 5.466 29.564)" />
  <ellipse cx=".841" cy=".84" rx=".841" ry=".84" transform="matrix(1 0 0 -1 9.42 31.37)" />
  <ellipse cx=".505" cy=".504" rx=".505" ry=".504"
    transform="matrix(1 0 0 -1 12.152 32)" />
  <ellipse cx="12.804" cy="2.751" rx="2.208" ry="2.205"
    transform="rotate(-180 12.804 2.75)" />
  <ellipse cx="2.208" cy="2.205" rx="2.208" ry="2.205"
    transform="matrix(-1 0 0 1 31.495 10.666)" />
  <ellipse cx="1.892" cy="1.89" rx="1.892" ry="1.89"
    transform="matrix(-1 0 0 1 29.981 5.711)" />
  <ellipse cx="1.388" cy="1.386" rx="1.388" ry="1.386"
    transform="matrix(-1 0 0 1 26.66 2.436)" />
  <ellipse cx=".841" cy=".84" rx=".841" ry=".84" transform="matrix(-1 0 0 1 22.707 .63)" />
  <ellipse cx=".505" cy=".504" rx=".505" ry=".504" transform="matrix(-1 0 0 1 19.974 0)" />
  <ellipse cx="7.401" cy="3.948" rx="1.892" ry="1.89" transform="rotate(-180 7.4 3.948)" />
  <ellipse cx="3.49" cy="7.013" rx="1.388" ry="1.386"
    transform="rotate(-180 3.49 7.013)" />
  <ellipse cx="1.304" cy="10.163" rx=".841" ry=".84"
    transform="rotate(-180 1.304 10.163)" />
  <ellipse cx=".505" cy="12.64" rx=".505" ry=".504" transform="rotate(-180 .505 12.64)" />
  <ellipse cx="1.703" cy="1.702" rx="1.703" ry="1.702"
    transform="matrix(.90224 .43124 .43216 -.9018 16.02 4.791)" />
  <ellipse cx="1.46" cy="1.459" rx="1.46" ry="1.459"
    transform="matrix(.90224 .43124 .43216 -.9018 20.142 7.586)" />
  <ellipse cx="1.071" cy="1.07" rx="1.071" ry="1.07"
    transform="matrix(.90224 .43124 .43216 -.9018 22.623 10.664)" />
  <ellipse cx=".649" cy=".648" rx=".649" ry=".648"
    transform="matrix(.90224 .43124 .43216 -.9018 24.179 12.97)" />
  <ellipse cx="1.703" cy="1.702" rx="1.703" ry="1.702"
    transform="matrix(-.90224 -.43124 -.43216 .9018 16 27.132)" />
  <ellipse cx="1.46" cy="1.459" rx="1.46" ry="1.459"
    transform="matrix(-.90224 -.43124 -.43216 .9018 11.88 24.337)" />
  <ellipse cx="1.071" cy="1.07" rx="1.071" ry="1.07"
    transform="matrix(-.90224 -.43124 -.43216 .9018 9.398 21.259)" />
  <ellipse cx=".649" cy=".648" rx=".649" ry=".648"
    transform="matrix(-.90224 -.43124 -.43216 .9018 7.842 18.953)" />
  <ellipse cx="1.703" cy="1.702" rx="1.703" ry="1.702"
    transform="matrix(-.90224 -.43124 -.43216 .9018 30.195 17.595)" />
  <ellipse cx="1.46" cy="1.459" rx="1.46" ry="1.459"
    transform="matrix(-.90224 -.43124 -.43216 .9018 26.896 21.627)" />
  <ellipse cx="1.071" cy="1.07" rx="1.071" ry="1.07"
    transform="matrix(-.90224 -.43124 -.43216 .9018 23.335 23.894)" />
  <ellipse cx=".649" cy=".648" rx=".649" ry=".648"
    transform="matrix(-.90224 -.43124 -.43216 .9018 20.275 24.916)" />
  <ellipse cx="1.703" cy="1.702" rx="1.703" ry="1.702"
    transform="matrix(.90224 .43124 .43216 -.9018 1.766 14.344)" />
  <ellipse cx="1.46" cy="1.459" rx="1.46" ry="1.459"
    transform="matrix(.90224 .43124 .43216 -.9018 5.064 10.312)" />
  <ellipse cx="1.071" cy="1.07" rx="1.071" ry="1.07"
    transform="matrix(.90224 .43124 .43216 -.9018 8.626 8.044)" />
  <ellipse cx=".649" cy=".648" rx=".649" ry=".648"
    transform="matrix(.90224 .43124 .43216 -.9018 11.686 7.022)" />
</svg>
