<svg xmlns="http://www.w3.org/2000/svg" xmlns:xlink="http://www.w3.org/1999/xlink" fill="none"
  viewBox="0 0 80 80">
  <defs>
    <path id="b" fill="#8DB0FF"
      d="M41.3.001H6.505A6.504 6.504 0 0 0 0 6.505v16.91a6.504 6.504 0 0 0 6.504 6.505h3.577l5.91 5.91c.82.819 2.22.239 2.22-.92v-4.99h23.09a6.504 6.504 0 0 0 6.504-6.504V6.505A6.504 6.504 0 0 0 41.3 0Z" />
  </defs>
  <g clip-path="url(#a)">
    <path fill="#FF933B"
      d="M52.52 80H1.626A1.626 1.626 0 0 1 0 78.374v-6.83c0-.897.728-1.625 1.626-1.625H52.52V80Z" />
    <path fill="#F27D27"
      d="M48.943 69.919a12.967 12.967 0 0 0-1.138 5.314v.051a1.3 1.3 0 0 1-1.3 1.301H0v1.79C0 79.271.728 80 1.626 80H52.52V69.92h-3.577Z" />
    <path fill="#FECCC1"
      d="M72.358 55.773a6.83 6.83 0 0 0-13.659 0v3.252a6.83 6.83 0 0 0 13.659 0v-3.252Z" />
    <path fill="#F9B3A7"
      d="M65.527 48.943c-.474 0-.936.05-1.383.14a6.832 6.832 0 0 1 5.448 6.69v3.252a6.832 6.832 0 0 1-5.448 6.689 6.83 6.83 0 0 0 8.212-6.689v-3.252a6.83 6.83 0 0 0-6.829-6.83Z" />
    <path fill="#636363"
      d="M79.999 78.375v-3.142a9.756 9.756 0 0 0-6.556-9.216l-3.482-1.209a10.475 10.475 0 0 0-3.437-.58H64.53c-1.17 0-2.332.196-3.437.58l-3.482 1.209a9.756 9.756 0 0 0-6.555 9.216v4.768h27.317c.897 0 1.626-.729 1.626-1.626Z" />
    <path fill="#494949"
      d="m73.443 66.016-.912-.317a9.758 9.758 0 0 1 3.89 7.797V80h1.952c.898 0 1.626-.728 1.626-1.626v-3.142a9.756 9.756 0 0 0-6.556-9.216Z" />
    <path fill="#636363"
      d="m35.232 55.936-2.387-.829v.016l-5.529 9.594-5.528-9.594-.002-.015-2.386.828a9.756 9.756 0 0 0-6.555 9.217v4.767h28.943v-4.767a9.755 9.755 0 0 0-6.556-9.217Z" />
    <path fill="#494949"
      d="m35.232 55.936-.912-.317a9.758 9.758 0 0 1 3.891 7.797v6.504h3.577v-4.768a9.756 9.756 0 0 0-6.556-9.216Z" />
    <path fill="#DDF5FF"
      d="m21.787 55.122 5.529 9.594 5.528-9.594v-.015l-2.764-.96h-5.53l-2.766.96.002.015Z" />
    <path fill="#FECCC1"
      d="M34.144 45.693a6.83 6.83 0 0 0-13.659 0v3.252a6.83 6.83 0 0 0 13.659 0v-3.252Z" />
    <path fill="#F9B3A7"
      d="M27.315 38.863a6.87 6.87 0 0 0-1.381.14 6.831 6.831 0 0 1 5.446 6.69v3.252a6.831 6.831 0 0 1-5.446 6.689 6.829 6.829 0 0 0 8.211-6.69v-3.252a6.83 6.83 0 0 0-6.83-6.829Z" />
    <use xlink:href="#b" />
    <use xlink:href="#b" />
    <path fill="#669AF7"
      d="M6.504 26.668A6.504 6.504 0 0 1 0 20.163v3.253a6.504 6.504 0 0 0 6.504 6.504h3.577l5.91 5.909c.82.82 2.22.24 2.22-.92v-.111l-7.177-7.178a3.252 3.252 0 0 0-2.3-.952h-2.23ZM41.298.001h-4.065a6.498 6.498 0 0 1 5.499 3.03c.686 1.083-.09 2.499-1.373 2.499h-2.662c-5.389 0-9.757 4.367-9.757 9.755v9.757c0 .898-.727 1.626-1.626 1.626h-5.853a3.252 3.252 0 0 0-3.252 3.252h23.089a6.504 6.504 0 0 0 6.504-6.504V6.505A6.504 6.504 0 0 0 41.298 0Z" />
    <path fill="#FFD664"
      d="M38.7 8.78h34.797A6.504 6.504 0 0 1 80 15.282v16.911a6.504 6.504 0 0 1-6.504 6.504H56.749v4.99c0 1.159-1.402 1.739-2.22.92l-5.91-5.91H38.7a6.504 6.504 0 0 1-6.504-6.504v-16.91A6.504 6.504 0 0 1 38.7 8.778Z" />
    <path fill="#F9C646"
      d="M38.7 35.123a6.504 6.504 0 0 1-6.505-6.505v3.577A6.505 6.505 0 0 0 38.7 38.7h9.919l5.91 5.91c.819.819 2.22.238 2.22-.92v-.437l-7.178-7.178a3.252 3.252 0 0 0-2.3-.952H38.7ZM73.496 8.781h-4.065a6.504 6.504 0 0 1 6.504 6.504v16.586a3.252 3.252 0 0 1-3.252 3.252H60a3.252 3.252 0 0 0-3.252 3.252v.325h16.748A6.505 6.505 0 0 0 80 32.196v-16.91a6.504 6.504 0 0 0-6.504-6.505Z" />
  </g>
  <defs>
    <clipPath id="a">
      <path fill="#fff" d="M0 .001h80v80H0z" />
    </clipPath>
  </defs>
</svg>
