<svg width="80" height="80" viewBox="0 0 80 80" fill="none" xmlns="http://www.w3.org/2000/svg">
  <g clip-path="url(#clip0_168_7802)">
    <path
      d="M52.5201 80.0001H1.62598C0.728149 80.0001 0 79.272 0 78.3741V71.5449C0 70.6471 0.728149 69.9189 1.62598 69.9189H52.5201V80.0001Z"
      fill="#FF933B" />
    <path
      d="M48.9429 69.9189C48.208 71.5571 47.8052 73.3607 47.8052 75.2327V75.2845C47.8052 76.0029 47.2229 76.5852 46.5045 76.5852H0V78.3741C0 79.272 0.728149 80.0001 1.62598 80.0001H52.5201V69.9189H48.9429Z"
      fill="#F27D27" />
    <path
      d="M72.3577 55.7726C72.3577 52.0012 69.2998 48.9434 65.5284 48.9434C61.7565 48.9434 58.6992 52.0012 58.6992 55.7726V59.0251C58.6992 62.7965 61.7565 65.8544 65.5284 65.8544C69.2998 65.8544 72.3577 62.7965 72.3577 59.0251V55.7726Z"
      fill="#FECCC1" />
    <path
      d="M65.527 48.9434C65.0533 48.9434 64.5913 48.9922 64.1445 49.0837C67.2537 49.7228 69.5919 52.4749 69.5919 55.7726V59.0251C69.5919 62.3229 67.2537 65.075 64.1445 65.714C64.5913 65.8055 65.0533 65.8544 65.527 65.8544C69.2983 65.8544 72.3562 62.7965 72.3562 59.0251V55.7726C72.3562 52.0012 69.2983 48.9434 65.527 48.9434Z"
      fill="#F9B3A7" />
    <path
      d="M79.9985 78.3746V75.2332C79.9985 71.0785 77.3673 67.3798 73.4427 66.0168L69.9607 64.8083C68.8553 64.4244 67.6938 64.2285 66.5238 64.2285H64.5304C63.3604 64.2285 62.1982 64.4244 61.0935 64.8083L57.6115 66.0168C53.6869 67.3798 51.0557 71.0785 51.0557 75.2332V80.0006H78.3726C79.2704 80.0006 79.9985 79.2725 79.9985 78.3746Z"
      fill="#636363" />
    <path
      d="M73.4431 66.016L72.5312 65.6992C74.9354 67.5089 76.4216 70.3733 76.4216 73.4958V79.9998H78.3729C79.2708 79.9998 79.9989 79.2716 79.9989 78.3738V75.2323C79.9989 71.0776 77.3677 67.3789 73.4431 66.016Z"
      fill="#494949" />
    <path
      d="M35.2318 55.9363L32.8447 55.1074V55.1233L27.3162 64.7168L21.7876 55.1233L21.7858 55.108L19.4005 55.9363C15.476 57.2992 12.8447 60.9979 12.8447 65.1526V69.92H41.7876V65.1526C41.7876 60.9979 39.157 57.2992 35.2318 55.9363Z"
      fill="#636363" />
    <path
      d="M35.2322 55.9359L34.3203 55.6191C36.7245 57.4288 38.2113 60.2932 38.2113 63.4158V69.9197H41.788V65.1522C41.788 60.9976 39.1573 57.2988 35.2322 55.9359Z"
      fill="#494949" />
    <path
      d="M21.787 55.1224L27.3156 64.7159L32.8441 55.1224V55.1066L30.0798 54.1465H24.5513L21.7852 55.1072L21.787 55.1224Z"
      fill="#DDF5FF" />
    <path
      d="M34.1438 45.6925C34.1438 41.9211 31.0865 38.8633 27.3146 38.8633C23.5432 38.8633 20.4854 41.9211 20.4854 45.6925V48.9445C20.4854 52.7164 23.5432 55.7737 27.3146 55.7737C31.0865 55.7737 34.1438 52.7164 34.1438 48.9445V45.6925Z"
      fill="#FECCC1" />
    <path
      d="M27.3154 38.8633C26.8424 38.8633 26.3798 38.9115 25.9336 39.0031C29.0427 39.6421 31.3804 42.3942 31.3804 45.6925V48.9445C31.3804 52.2428 29.0427 54.9949 25.9336 55.6339C26.3798 55.7255 26.8418 55.7737 27.3154 55.7737C31.0874 55.7737 34.1447 52.7164 34.1447 48.9445V45.6925C34.1447 41.9211 31.0874 38.8633 27.3154 38.8633Z"
      fill="#F9B3A7" />
    <path
      d="M41.3007 0.000976562H6.50391C2.91199 0.000976562 0 2.91296 0 6.50488V23.4159C0 27.0078 2.91199 29.9198 6.50391 29.9198H10.0812L15.9906 35.8292C16.8103 36.6489 18.2117 36.0685 18.2117 34.9094V29.9198H41.3007C44.8926 29.9198 47.8046 27.0078 47.8046 23.4159V6.50488C47.8046 2.91296 44.8932 0.000976562 41.3007 0.000976562Z"
      fill="#8DB0FF" />
    <path
      d="M41.3007 0.000976562H6.50391C2.91199 0.000976562 0 2.91296 0 6.50488V23.4159C0 27.0078 2.91199 29.9198 6.50391 29.9198H10.0812L15.9906 35.8292C16.8103 36.6489 18.2117 36.0685 18.2117 34.9094V29.9198H41.3007C44.8926 29.9198 47.8046 27.0078 47.8046 23.4159V6.50488C47.8046 2.91296 44.8932 0.000976562 41.3007 0.000976562Z"
      fill="#8DB0FF" />
    <path
      d="M6.50391 26.6676C2.91199 26.6676 0 23.7556 0 20.1631V23.4156C0 27.0076 2.91199 29.9196 6.50391 29.9196H10.0812L15.9906 35.829C16.8103 36.6487 18.2117 36.0682 18.2117 34.9092V34.7975L11.0339 27.6198C10.4242 27.01 9.59656 26.6676 8.73413 26.6676H6.50391Z"
      fill="#669AF7" />
    <path
      d="M41.298 0.000976562H37.233C39.5475 0.000976562 41.5787 1.20947 42.7317 3.03015C43.4177 4.11414 42.6414 5.52954 41.359 5.52954H38.6967C33.3085 5.52954 28.9402 9.89722 28.9402 15.2854V25.0419C28.9402 25.9397 28.2126 26.6678 27.3142 26.6678H21.4609C19.6647 26.6678 18.209 28.1235 18.209 29.9198H41.298C44.8899 29.9198 47.8019 27.0078 47.8019 23.4159V6.50488C47.8019 2.91296 44.8905 0.000976562 41.298 0.000976562Z"
      fill="#669AF7" />
    <path
      d="M38.7002 8.7793H73.4969C77.0889 8.7793 80.0009 11.6913 80.0009 15.2832V32.1942C80.0009 35.7861 77.0889 38.6981 73.4969 38.6981H56.7489V43.6877C56.7489 44.8468 55.3475 45.4266 54.5284 44.6075L48.619 38.6981H38.7002C35.1083 38.6981 32.1963 35.7861 32.1963 32.1942V15.2832C32.1963 11.6913 35.1077 8.7793 38.7002 8.7793Z"
      fill="#FFD664" />
    <path
      d="M38.6992 35.1227C35.1073 35.1227 32.1953 32.2107 32.1953 28.6182V32.1954C32.1953 35.7874 35.1073 38.7 38.6992 38.7H48.618L54.5275 44.6094C55.3466 45.4285 56.7479 44.848 56.7479 43.6896V43.2526L49.5702 36.0748C48.9604 35.4651 48.1334 35.1227 47.2704 35.1227H38.6992Z"
      fill="#F9C646" />
    <path
      d="M73.4961 8.78125H69.4312C73.0231 8.78125 75.9351 11.6932 75.9351 15.2852V31.8708C75.9351 33.6665 74.4788 35.1228 72.6831 35.1228H60C58.2037 35.1228 56.748 36.5785 56.748 38.3748V38.7001H73.4961C77.088 38.7001 80 35.7875 80 32.1956V15.2852C80 11.6932 77.088 8.78125 73.4961 8.78125Z"
      fill="#F9C646" />
  </g>
  <defs>
    <clipPath id="clip0_168_7802">
      <rect width="80" height="80" fill="white" transform="translate(0 0.000976562)" />
    </clipPath>
  </defs>
</svg>
