<svg xmlns="http://www.w3.org/2000/svg" fill="none" viewBox="0 0 81 80">
  <g clip-path="url(#a)">
    <path fill="#404A80"
      d="M51.9 25.415c0-6.204-5.03-11.233-11.233-11.233l-1.563 8.379 1.563 8.378H51.9v-5.524Z" />
    <path fill="#5C6699" d="M29.435 25.415v5.524h11.233V14.182c-6.204 0-11.233 5.029-11.233 11.233Z" />
    <path fill="#FFCDBE"
      d="M47.757 7.092a7.09 7.09 0 0 0-7.09-7.09l-1.563 7.09 1.563 7.09a7.09 7.09 0 0 0 7.09-7.09Z" />
    <path fill="#FFDECF" d="M33.577 7.092a7.09 7.09 0 0 0 7.09 7.09V.002a7.09 7.09 0 0 0-7.09 7.09Z" />
    <path fill="#6A4DFF"
      d="M51.9 74.478c0-6.203-5.03-11.233-11.233-11.233l-1.563 8.379 1.563 8.379H51.9v-5.525Z" />
    <path fill="#6680FF" d="M29.435 74.478v5.525h11.233V63.245c-6.204 0-11.233 5.03-11.233 11.233Z" />
    <path fill="#DBAD5C"
      d="M47.757 56.154a7.09 7.09 0 0 0-7.09-7.09l-1.563 7.09 1.563 7.09a7.09 7.09 0 0 0 7.09-7.09Z" />
    <path fill="#E7C994"
      d="M33.577 56.154a7.09 7.09 0 0 0 7.09 7.09v-14.18a7.09 7.09 0 0 0-7.09 7.09Z" />
    <path fill="#FFB655"
      d="M23.134 49.947c0-6.204-5.03-11.233-11.234-11.233l-1.562 8.379 1.562 8.379h11.234v-5.525Z" />
    <path fill="#FFDA44" d="M.668 49.947v5.525h11.233V38.714c-6.204 0-11.233 5.03-11.233 11.233Z" />
    <path fill="#8C574D"
      d="M18.99 31.624a7.09 7.09 0 0 0-7.09-7.09l-1.562 7.09 1.562 7.09a7.09 7.09 0 0 0 7.09-7.09Z" />
    <path fill="#A6756B"
      d="M4.81 31.624a7.09 7.09 0 0 0 7.09 7.09v-14.18a7.09 7.09 0 0 0-7.09 7.09Z" />
    <path fill="#E62E6B"
      d="M80.669 49.947c0-6.204-4.943-11.233-11.04-11.233l-1.535 8.379 1.535 8.379h11.04v-5.525Z" />
    <path fill="#F66" d="M58.59 49.947v5.525h11.04V38.714c-6.098 0-11.04 5.03-11.04 11.233Z" />
    <path fill="#FFCDBE"
      d="M76.597 31.624c0-3.916-3.12-7.09-6.968-7.09l-1.535 7.09 1.535 7.09c3.848 0 6.968-3.174 6.968-7.09Z" />
    <path fill="#FFDECF"
      d="M62.66 31.624c0 3.916 3.12 7.09 6.968 7.09v-14.18c-3.848 0-6.968 3.174-6.968 7.09Z" />
    <path fill="#404A80"
      d="M14.475 19.846H9.787v-2.11c0-6.461 5.257-11.718 11.719-11.718h5.703v4.687h-5.703a7.04 7.04 0 0 0-7.031 7.031v2.11Z" />
    <path fill="#283366"
      d="M71.973 19.846h-4.688v-2.11a7.04 7.04 0 0 0-7.031-7.03H54.55V6.017h5.703c6.462 0 11.719 5.257 11.719 11.718v2.11Z" />
    <path fill="#404A80"
      d="M23.693 73.987h-2.187c-6.462 0-11.719-5.257-11.719-11.718v-2.11h4.688v2.11a7.04 7.04 0 0 0 7.03 7.03h2.188v4.688Z" />
    <path fill="#283366"
      d="M60.254 73.987h-2.188V69.3h2.188a7.04 7.04 0 0 0 7.031-7.031v-2.11h4.688v2.11c0 6.461-5.257 11.718-11.72 11.718Z" />
  </g>
  <defs>
    <clipPath id="a">
      <path fill="#fff" d="M.667.001h80v80h-80z" />
    </clipPath>
  </defs>
</svg>
