<svg width="81" height="80" viewBox="0 0 81 80" fill="none" xmlns="http://www.w3.org/2000/svg">
  <g clip-path="url(#clip0_168_7851)">
    <path
      d="M51.9003 25.4149C51.9003 19.211 46.8709 14.1816 40.667 14.1816L39.1045 22.5605L40.667 30.9395H51.9003V25.4149Z"
      fill="#404A80" />
    <path
      d="M29.4346 25.4149V30.9395H40.6679V14.1816C34.4639 14.1816 29.4346 19.211 29.4346 25.4149Z"
      fill="#5C6699" />
    <path
      d="M47.7568 7.0918C47.7568 3.17617 44.5826 0.00195312 40.667 0.00195312L39.1045 7.0918L40.667 14.1816C44.5826 14.1816 47.7568 11.0074 47.7568 7.0918Z"
      fill="#FFCDBE" />
    <path
      d="M33.5771 7.0918C33.5771 11.0074 36.7514 14.1816 40.667 14.1816V0.00195312C36.7514 0.00195312 33.5771 3.17617 33.5771 7.0918Z"
      fill="#FFDECF" />
    <path
      d="M51.9003 74.4784C51.9003 68.2745 46.8709 63.2451 40.667 63.2451L39.1045 71.624L40.667 80.0029H51.9003V74.4784Z"
      fill="#6A4DFF" />
    <path
      d="M29.4346 74.4784V80.0029H40.6679V63.2451C34.4639 63.2451 29.4346 68.2745 29.4346 74.4784Z"
      fill="#6680FF" />
    <path
      d="M47.7568 56.1543C47.7568 52.2387 44.5826 49.0645 40.667 49.0645L39.1045 56.1543L40.667 63.2441C44.5826 63.2441 47.7568 60.0699 47.7568 56.1543Z"
      fill="#DBAD5C" />
    <path
      d="M33.5771 56.1543C33.5771 60.0699 36.7514 63.2441 40.667 63.2441V49.0645C36.7514 49.0645 33.5771 52.2387 33.5771 56.1543Z"
      fill="#E7C994" />
    <path
      d="M23.1337 49.9471C23.1337 43.7432 18.1043 38.7139 11.9004 38.7139L10.3379 47.0928L11.9004 55.4717H23.1337V49.9471Z"
      fill="#FFB655" />
    <path
      d="M0.667969 49.9471V55.4717H11.9012V38.7139C5.69734 38.7139 0.667969 43.7432 0.667969 49.9471Z"
      fill="#FFDA44" />
    <path
      d="M18.9902 31.624C18.9902 27.7084 15.816 24.5342 11.9004 24.5342L10.3379 31.624L11.9004 38.7139C15.816 38.7139 18.9902 35.5396 18.9902 31.624Z"
      fill="#8C574D" />
    <path
      d="M4.81055 31.624C4.81055 35.5396 7.98477 38.7139 11.9004 38.7139V24.5342C7.98477 24.5342 4.81055 27.7084 4.81055 31.624Z"
      fill="#A6756B" />
    <path
      d="M80.6686 49.9471C80.6686 43.7432 75.7261 38.7139 69.6292 38.7139L68.0938 47.0928L69.6292 55.4717H80.6686V49.9471Z"
      fill="#E62E6B" />
    <path
      d="M58.5898 49.9471V55.4717H69.6292V38.7139C63.5323 38.7139 58.5898 43.7432 58.5898 49.9471Z"
      fill="#FF6666" />
    <path
      d="M76.5967 31.624C76.5967 27.7084 73.4773 24.5342 69.6292 24.5342L68.0938 31.624L69.6292 38.7139C73.4773 38.7139 76.5967 35.5396 76.5967 31.624Z"
      fill="#FFCDBE" />
    <path
      d="M62.6602 31.624C62.6602 35.5396 65.7795 38.7139 69.6277 38.7139V24.5342C65.7797 24.5342 62.6602 27.7084 62.6602 31.624Z"
      fill="#FFDECF" />
    <path
      d="M14.4746 19.8457H9.78711V17.7363C9.78711 11.2746 15.0441 6.01758 21.5059 6.01758H27.209V10.7051H21.5059C17.6288 10.7051 14.4746 13.8593 14.4746 17.7363V19.8457Z"
      fill="#404A80" />
    <path
      d="M71.9727 19.8457H67.2852V17.7363C67.2852 13.8593 64.1309 10.7051 60.2539 10.7051H54.5508V6.01758H60.2539C66.7156 6.01758 71.9727 11.2746 71.9727 17.7363V19.8457Z"
      fill="#283366" />
    <path
      d="M23.6934 73.9873H21.5059C15.0441 73.9873 9.78711 68.7303 9.78711 62.2686V60.1592H14.4746V62.2686C14.4746 66.1456 17.6288 69.2998 21.5059 69.2998H23.6934V73.9873Z"
      fill="#404A80" />
    <path
      d="M60.2539 73.9873H58.0664V69.2998H60.2539C64.1309 69.2998 67.2852 66.1456 67.2852 62.2686V60.1592H71.9727V62.2686C71.9727 68.7303 66.7158 73.9873 60.2539 73.9873Z"
      fill="#283366" />
  </g>
  <defs>
    <clipPath id="clip0_168_7851">
      <rect width="80" height="80" fill="white" transform="translate(0.666992 0.000976562)" />
    </clipPath>
  </defs>
</svg>
