<svg width="80" height="80" viewBox="0 0 80 80" fill="none" xmlns="http://www.w3.org/2000/svg">
  <g clip-path="url(#clip0_168_7879)">
    <path
      d="M65.0632 0.00195312C65.0632 0.769297 65.1789 1.50961 65.3938 2.20633L66.5922 6.09164C67.9608 10.5284 64.6438 15.0227 60.0008 15.0227L52.9697 47.0332L80.001 40.0019V0.00195312H65.0632Z"
      fill="#E32D2D" />
    <path
      d="M20.001 0.00195312L15.3135 27.5123L20.001 55.0226C24.6439 55.0226 27.961 50.5282 26.5924 46.0915L25.3939 42.2062C25.1791 41.5095 25.0633 40.769 25.0633 40.0018H40.001L47.0322 20.0018L40.001 0.00195313L20.001 0.00195312Z"
      fill="#EDCB4C" />
    <path
      d="M60.0003 15.0227C55.3573 15.0227 52.0404 10.5284 53.4089 6.09164L54.6073 2.20633C54.8223 1.50961 54.9379 0.769297 54.9379 0.00195312H40.0003V14.9398C39.2329 14.9398 38.4926 14.824 37.7959 14.6091L33.9106 13.4107C29.4739 12.0421 24.9795 15.3591 24.9795 20.0021C24.9795 24.6451 29.4739 27.962 33.9106 26.5935L37.7959 25.3951C38.4926 25.1801 39.2329 25.0644 40.0003 25.0644V40.0019L60.0003 47.0332V15.0227Z"
      fill="#EC564C" />
    <path
      d="M0.000976562 0.00195312V14.9398C0.76832 14.9398 1.50863 14.824 2.20535 14.6091L6.09066 13.4107C10.5274 12.0421 15.0218 15.359 15.0218 20.002C15.0218 24.6449 10.5274 27.9618 6.09066 26.5934L2.20535 25.3949C1.50863 25.1799 0.76832 25.0643 0.000976563 25.0643V40.002H14.9388C14.9388 40.7693 14.823 41.5096 14.6082 42.2063L13.4097 46.0916C12.0411 50.5284 15.3582 55.0227 20.0011 55.0227V0.00195312H0.000976562Z"
      fill="#EDED51" />
    <path
      d="M65.393 37.7969L66.5914 33.9116C67.96 29.4748 64.643 24.9805 60 24.9805L55.3125 52.4908L60 80.0013H80V65.0634C79.2327 65.0634 78.4923 65.1792 77.7956 65.3941L73.9103 66.5925C69.4736 67.9611 64.9792 64.6441 64.9792 60.0011C64.9792 55.3581 69.4736 52.0412 73.9103 53.4097L77.7956 54.6081C78.4923 54.823 79.2327 54.9388 80 54.9388V40.0012H65.0622C65.0622 39.2339 65.178 38.4936 65.393 37.7969Z"
      fill="#47449D" />
    <path
      d="M53.4086 33.9116L54.607 37.7969C54.8219 38.4936 54.9377 39.2339 54.9377 40.0012H40V54.9391C40.7673 54.9391 41.5077 54.8233 42.2044 54.6084L46.0897 53.41C50.5264 52.0414 55.0208 55.3584 55.0208 60.0014C55.0208 64.6444 50.5264 67.9613 46.0897 66.5928L42.2044 65.3944C41.5077 65.1794 40.7673 65.0637 40 65.0637V80.0013H60V24.9805C55.357 24.9805 52.0402 29.4748 53.4086 33.9116Z"
      fill="#625FB2" />
  </g>
  <defs>
    <clipPath id="clip0_168_7879">
      <rect width="80" height="80" fill="white" transform="translate(0 0.000976562)" />
    </clipPath>
  </defs>
</svg>
