<svg xmlns="http://www.w3.org/2000/svg" fill="none" viewBox="0 0 80 80">
  <g clip-path="url(#a)">
    <path fill="#E32D2D"
      d="M65.063.002c0 .767.116 1.508.33 2.204l1.2 3.886c1.368 4.436-1.95 8.93-6.592 8.93L52.97 47.034 80 40.002v-40H65.063Z" />
    <path fill="#EDCB4C"
      d="m20.001.002-4.688 27.51 4.688 27.51c4.643 0 7.96-4.494 6.591-8.93l-1.198-3.886a7.472 7.472 0 0 1-.33-2.204H40l7.031-20L40 .002H20Z" />
    <path fill="#EC564C"
      d="M60 15.023c-4.643 0-7.96-4.495-6.591-8.931l1.198-3.886a7.46 7.46 0 0 0 .33-2.204H40V14.94a7.467 7.467 0 0 1-2.204-.33l-3.885-1.2c-4.437-1.368-8.931 1.95-8.931 6.592 0 4.643 4.494 7.96 8.93 6.591l3.886-1.198a7.464 7.464 0 0 1 2.204-.33v14.937l20 7.031v-32.01Z" />
    <path fill="#EDED51"
      d="M.001.002V14.94c.767 0 1.508-.116 2.204-.33l3.886-1.2c4.436-1.368 8.93 1.949 8.93 6.592s-4.494 7.96-8.93 6.591l-3.886-1.198a7.464 7.464 0 0 0-2.204-.33v14.937h14.938a7.47 7.47 0 0 1-.33 2.204l-1.2 3.886c-1.368 4.436 1.95 8.93 6.592 8.93V.003h-20Z" />
    <path fill="#47449D"
      d="m65.393 37.797 1.198-3.885C67.96 29.475 64.643 24.98 60 24.98l-4.688 27.51L60 80h20V65.063a7.46 7.46 0 0 0-2.204.331l-3.886 1.198c-4.436 1.37-8.93-1.948-8.93-6.59 0-4.644 4.494-7.96 8.93-6.592l3.886 1.198a7.46 7.46 0 0 0 2.204.33V40.002H65.062c0-.767.116-1.507.331-2.204Z" />
    <path fill="#625FB2"
      d="m53.409 33.912 1.198 3.885c.215.697.33 1.437.33 2.204H40V54.94c.767 0 1.508-.116 2.204-.33l3.886-1.199c4.436-1.369 8.93 1.948 8.93 6.591 0 4.643-4.494 7.96-8.93 6.592l-3.886-1.199a7.465 7.465 0 0 0-2.204-.33V80h20V24.98c-4.643 0-7.96 4.494-6.591 8.93Z" />
  </g>
  <defs>
    <clipPath id="a">
      <path fill="#fff" d="M0 .001h80v80H0z" />
    </clipPath>
  </defs>
</svg>
