<svg xmlns="http://www.w3.org/2000/svg" fill="none" viewBox="0 0 81 80">
  <g clip-path="url(#a)">
    <path fill="#D0D0E8"
      d="M80.327 33.263c0-15.689-12.714-28.408-28.398-28.408-9.149 0-17.238 4.27-22.431 10.992L55.202 61.55c3.367-.544 7.796-1.916 10.68-3.542a1.61 1.61 0 0 1 1.103-.176l10.4 2.057c1.302.257 2.39-.996 1.953-2.248l-2.949-8.445a2.163 2.163 0 0 1 .173-1.792 28.282 28.282 0 0 0 3.765-14.14Z" />
    <path fill="#FFF5F5"
      d="M30.655 14.465c-16.75 0-30.329 13.584-30.329 30.34A30.203 30.203 0 0 0 4.48 60.138c.255.435.305.96.139 1.437l-3.237 9.268c-.467 1.337.695 2.676 2.085 2.401l11.108-2.196c.4-.08.817-.016 1.173.185a30.177 30.177 0 0 0 14.908 3.914c16.75 0 30.329-13.584 30.329-30.34 0-16.757-13.579-30.341-30.33-30.341Z" />
    <path fill="#EFE7F3"
      d="M30.654 14.465h-.02v60.68l.02.001c16.75 0 30.329-13.584 30.329-30.34 0-16.757-13.579-30.341-30.33-30.341Z" />
    <path fill="#B8B8FF"
      d="M11.639 50.731a2.344 2.344 0 0 1-2.344-2.344v-7.162a2.344 2.344 0 0 1 4.687 0v7.162a2.344 2.344 0 0 1-2.343 2.344Zm9.507 5.233a2.344 2.344 0 0 1-2.343-2.344V35.993a2.344 2.344 0 0 1 4.687 0V53.62a2.344 2.344 0 0 1-2.343 2.344Zm9.51-5.233a2.344 2.344 0 0 1-2.343-2.344v-7.162a2.344 2.344 0 0 1 4.687 0v7.162a2.344 2.344 0 0 1-2.344 2.344Z" />
    <path fill="#9A9AFF"
      d="M40.164 53.491a2.344 2.344 0 0 1-2.344-2.343V38.465a2.344 2.344 0 0 1 4.688 0v12.683a2.344 2.344 0 0 1-2.344 2.343Zm9.51-4.744a2.344 2.344 0 0 1-2.344-2.344v-3.195a2.344 2.344 0 0 1 4.688 0v3.195a2.344 2.344 0 0 1-2.344 2.344Zm-19.02-9.867-.02.002V50.73l.02.001a2.344 2.344 0 0 0 2.343-2.344v-7.162a2.344 2.344 0 0 0-2.343-2.344Z" />
  </g>
  <defs>
    <clipPath id="a">
      <path fill="#fff" d="M.332.001h80v80h-80z" />
    </clipPath>
  </defs>
</svg>
