<svg width="81" height="80" viewBox="0 0 81 80" fill="none" xmlns="http://www.w3.org/2000/svg">
  <g clip-path="url(#clip0_168_7828)">
    <path
      d="M80.3266 33.2633C80.3266 17.5741 67.6127 4.85547 51.9295 4.85547C42.7801 4.85547 34.6915 9.12516 29.498 15.8469L55.202 61.5495C58.5688 61.0055 62.9984 59.6336 65.8821 58.0084C66.2168 57.8198 66.6079 57.7578 66.9848 57.8323L77.3857 59.8891C78.687 60.1464 79.7756 58.8927 79.3382 57.6405L76.389 49.1964C76.1815 48.6023 76.2482 47.9495 76.5618 47.4041C78.956 43.2397 80.3266 38.4119 80.3266 33.2633Z"
      fill="#D0D0E8" />
    <path
      d="M30.6555 14.4648C13.9051 14.4648 0.326172 28.0489 0.326172 44.8056C0.326172 50.3991 1.8407 55.6377 4.47977 60.1367C4.73508 60.5719 4.78523 61.0973 4.61883 61.5738L1.38195 70.8416C0.914766 72.1791 2.07742 73.5181 3.46727 73.2433L14.5746 71.0467C14.9754 70.9675 15.3924 71.0306 15.7479 71.2319C20.1505 73.723 25.2365 75.1464 30.6555 75.1464C47.406 75.1464 60.9849 61.5623 60.9849 44.8056C60.9849 28.0489 47.406 14.4648 30.6555 14.4648Z"
      fill="#FFF5F5" />
    <path
      d="M30.6535 14.4648C30.6473 14.4648 30.641 14.4648 30.6348 14.4648V75.1459C30.641 75.1459 30.6473 75.1463 30.6535 75.1463C47.404 75.1463 60.9829 61.5622 60.9829 44.8055C60.983 28.0489 47.404 14.4648 30.6535 14.4648Z"
      fill="#EFE7F3" />
    <path
      d="M11.6387 50.731C10.3443 50.731 9.29492 49.6816 9.29492 48.3873V41.2246C9.29492 39.9302 10.3443 38.8809 11.6387 38.8809C12.933 38.8809 13.9824 39.9302 13.9824 41.2246V48.3873C13.9824 49.6818 12.933 50.731 11.6387 50.731Z"
      fill="#B8B8FF" />
    <path
      d="M21.1465 55.9636C19.8521 55.9636 18.8027 54.9143 18.8027 53.6199V35.9932C18.8027 34.6988 19.8521 33.6494 21.1465 33.6494C22.4409 33.6494 23.4902 34.6988 23.4902 35.9932V53.6199C23.4902 54.9143 22.4409 55.9636 21.1465 55.9636Z"
      fill="#B8B8FF" />
    <path
      d="M30.6562 50.731C29.3619 50.731 28.3125 49.6816 28.3125 48.3873V41.2246C28.3125 39.9302 29.3619 38.8809 30.6562 38.8809C31.9506 38.8809 33 39.9302 33 41.2246V48.3873C33 49.6818 31.9508 50.731 30.6562 50.731Z"
      fill="#B8B8FF" />
    <path
      d="M40.1641 53.4914C38.8697 53.4914 37.8203 52.442 37.8203 51.1477V38.4648C37.8203 37.1705 38.8697 36.1211 40.1641 36.1211C41.4584 36.1211 42.5078 37.1705 42.5078 38.4648V51.1477C42.5078 52.4422 41.4584 53.4914 40.1641 53.4914Z"
      fill="#9A9AFF" />
    <path
      d="M49.6738 48.7468C48.3795 48.7468 47.3301 47.6974 47.3301 46.403V43.208C47.3301 41.9136 48.3795 40.8643 49.6738 40.8643C50.9682 40.8643 52.0176 41.9136 52.0176 43.208V46.403C52.0176 47.6974 50.9684 48.7468 49.6738 48.7468Z"
      fill="#9A9AFF" />
    <path
      d="M30.6535 38.8809C30.6471 38.8809 30.641 38.8818 30.6348 38.8818V50.7301C30.641 50.7301 30.6471 50.731 30.6535 50.731C31.9479 50.731 32.9973 49.6816 32.9973 48.3873V41.2246C32.9973 39.9301 31.948 38.8809 30.6535 38.8809Z"
      fill="#9A9AFF" />
  </g>
  <defs>
    <clipPath id="clip0_168_7828">
      <rect width="80" height="80" fill="white" transform="translate(0.332031 0.000976562)" />
    </clipPath>
  </defs>
</svg>
