<svg xmlns="http://www.w3.org/2000/svg" fill="none" viewBox="0 0 81 80">
  <g clip-path="url(#a)">
    <path fill="#DEDEE6"
      d="M35.15 34.483c0 8.38-6.792 15.172-15.172 15.172S4.806 42.862 4.806 34.483c0-8.38 6.792-15.172 15.172-15.172S35.15 26.102 35.15 34.483Z" />
    <path fill="#F3F3FB"
      d="M32.392 34.482c0 6.856-5.558 12.414-12.414 12.414S7.564 41.338 7.564 34.482s5.558-12.414 12.414-12.414 12.414 5.558 12.414 12.414Z" />
    <path fill="#DEDEE6"
      d="M80.667 15.173c0 8.38-6.793 15.173-15.172 15.173-8.38 0-15.173-6.793-15.173-15.173 0-8.38 6.793-15.172 15.173-15.172 8.38 0 15.172 6.793 15.172 15.172Z" />
    <path fill="#F3F3FB"
      d="M77.91 15.173c0 6.856-5.558 12.413-12.414 12.413S53.082 22.03 53.082 15.173 58.64 2.759 65.496 2.759 77.91 8.316 77.91 15.173Z" />
    <path fill="#DEDEE6"
      d="M62.736 64.828c0 8.38-6.792 15.172-15.172 15.172s-15.172-6.793-15.172-15.172c0-8.38 6.792-15.173 15.172-15.173s15.172 6.793 15.172 15.173Z" />
    <path fill="#F3F3FB"
      d="M59.978 64.829c0 6.856-5.558 12.414-12.414 12.414S35.15 71.685 35.15 64.829s5.558-12.414 12.414-12.414 12.414 5.558 12.414 12.414Z" />
    <path fill="#DEDEE6"
      d="M75.15 52.414a5.492 5.492 0 0 1-4.62-2.51 5.51 5.51 0 0 1-.897-3.007 5.516 5.516 0 0 1 5.517-5.517 5.516 5.516 0 0 1 5.517 5.517 5.516 5.516 0 0 1-5.517 5.517Z" />
    <path fill="#EE964B"
      d="M75.123 26.91a15.186 15.186 0 0 1-9.627 3.435 15.15 15.15 0 0 1-5.16-.896v-.015a15.02 15.02 0 0 1-4.468-2.524c.345-4.247 3.917-7.6 8.248-7.6h2.759c4.331 0 7.903 3.353 8.248 7.6Z" />
    <path fill="#EE964B" d="M71.011 13.795a5.517 5.517 0 1 1-11.035 0 5.517 5.517 0 0 1 11.035 0Z" />
    <path fill="#FFCA55"
      d="M47.563 80a15.105 15.105 0 0 1-9.655-3.461c.358-4.235 3.931-7.573 8.248-7.573h2.76c4.33 0 7.903 3.352 8.247 7.6l.015.014A15.142 15.142 0 0 1 47.563 80Z" />
    <path fill="#FFCA55" d="M53.053 63.448a5.517 5.517 0 1 1-11.035 0 5.517 5.517 0 0 1 11.035 0Z" />
    <path fill="#DEDEE6"
      d="M39.288.001a5.516 5.516 0 0 1 5.517 5.517 5.42 5.42 0 0 1-.345 1.904 5.51 5.51 0 0 1-5.172 3.614 5.516 5.516 0 0 1-5.517-5.518A5.516 5.516 0 0 1 39.288.001Z" />
    <path fill="#5DBCD9"
      d="M19.977 49.657c-2.675 0-5.185-.69-7.365-1.904a14.295 14.295 0 0 1-2.29-1.558c.359-4.235 3.931-7.573 8.248-7.573h2.76c4.33 0 7.903 3.352 8.247 7.6l.014.014a15.142 15.142 0 0 1-9.614 3.42Z" />
    <path fill="#5DBCD9" d="M25.466 33.104a5.517 5.517 0 1 1-11.035 0 5.517 5.517 0 0 1 11.035 0Z" />
    <path fill="#DEDEE6"
      d="M18.597 77.242a5.516 5.516 0 0 1-5.517-5.518 5.516 5.516 0 0 1 10.883-1.283 5.516 5.516 0 0 1-5.366 6.8ZM6.184 53.794c.966 0 1.89.248 2.676.703a5.497 5.497 0 0 1 2.841 4.814 5.516 5.516 0 0 1-5.517 5.517 5.516 5.516 0 0 1-5.517-5.517 5.516 5.516 0 0 1 5.517-5.517Zm0-53.793a5.516 5.516 0 0 1 5.517 5.517 5.475 5.475 0 0 1-3.144 4.966 5.316 5.316 0 0 1-2.373.552A5.516 5.516 0 0 1 .667 5.518 5.516 5.516 0 0 1 6.184.001Z" />
    <path fill="#45639C"
      d="M7.31 11.074 9.8 9.889l4.897 10.29-2.491 1.185-4.896-10.29Zm.341 42.749 3.752-6.743 2.41 1.341-3.751 6.744-2.41-1.342Zm36.33-45.109.956-2.59 6.8 2.51-.956 2.59-6.8-2.51Zm7.447 41.371 7.605-21.108 2.595.935-7.606 21.108-2.594-.935Zm8.095 5.322 10.252-6.658 1.503 2.315-10.25 6.658-1.505-2.315ZM29.16 46.639l2.041-1.856 7.172 7.892-2.041 1.855-7.173-7.891Zm-5.52 22.458 8.84-2.099.637 2.683-8.84 2.099-.637-2.683Zm9.77-41.819 17.575-7.446 1.076 2.54-17.576 7.446-1.076-2.54Z" />
  </g>
  <defs>
    <clipPath id="a">
      <path fill="#fff" d="M.667.001h80v80h-80z" />
    </clipPath>
  </defs>
</svg>
