<svg width="81" height="80" viewBox="0 0 81 80" fill="none" xmlns="http://www.w3.org/2000/svg">
  <g clip-path="url(#clip0_168_7769)">
    <path
      d="M35.1505 34.483C35.1505 42.8625 28.3577 49.6554 19.9781 49.6554C11.5985 49.6554 4.80566 42.8625 4.80566 34.483C4.80566 26.1034 11.5985 19.3105 19.9781 19.3105C28.3577 19.3105 35.1505 26.1034 35.1505 34.483Z"
      fill="#DEDEE6" />
    <path
      d="M32.392 34.4822C32.392 41.3383 26.8344 46.8959 19.9782 46.8959C13.1221 46.8959 7.56445 41.3383 7.56445 34.4822C7.56445 27.626 13.1221 22.0684 19.9782 22.0684C26.8344 22.0684 32.392 27.626 32.392 34.4822Z"
      fill="#F3F3FB" />
    <path
      d="M80.6671 15.1734C80.6671 23.553 73.8743 30.3458 65.4947 30.3458C57.1151 30.3458 50.3223 23.553 50.3223 15.1734C50.3223 6.79381 57.1151 0.000976562 65.4947 0.000976562C73.8743 0.000976562 80.6671 6.79381 80.6671 15.1734Z"
      fill="#DEDEE6" />
    <path
      d="M77.9096 15.1726C77.9096 22.0287 72.352 27.5864 65.4958 27.5864C58.6397 27.5864 53.082 22.0287 53.082 15.1726C53.082 8.31644 58.6397 2.75879 65.4958 2.75879C72.352 2.75879 77.9096 8.31644 77.9096 15.1726Z"
      fill="#F3F3FB" />
    <path
      d="M62.7364 64.8277C62.7364 73.2073 55.9436 80.0001 47.564 80.0001C39.1844 80.0001 32.3916 73.2073 32.3916 64.8277C32.3916 56.4481 39.1844 49.6553 47.564 49.6553C55.9436 49.6553 62.7364 56.4481 62.7364 64.8277Z"
      fill="#DEDEE6" />
    <path
      d="M59.978 64.8288C59.978 71.685 54.4203 77.2426 47.5642 77.2426C40.708 77.2426 35.1504 71.685 35.1504 64.8288C35.1504 57.9727 40.708 52.415 47.5642 52.415C54.4203 52.415 59.978 57.9727 59.978 64.8288Z"
      fill="#F3F3FB" />
    <path
      d="M75.1501 52.4144C73.2192 52.4144 71.5085 51.421 70.5292 49.9043C69.9642 49.0348 69.6328 48.0003 69.6328 46.8971C69.6328 43.8489 72.1018 41.3799 75.1501 41.3799C78.1983 41.3799 80.6673 43.8489 80.6673 46.8971C80.6673 49.9453 78.1983 52.4144 75.1501 52.4144Z"
      fill="#DEDEE6" />
    <path
      d="M75.1233 26.9102C72.5027 29.0486 69.1508 30.345 65.4957 30.345C63.6753 30.345 61.937 30.0278 60.3368 29.4486V29.4345C58.6955 28.8553 57.1922 27.9865 55.8682 26.9102C56.213 22.6625 59.7852 19.3105 64.1164 19.3105H66.875C71.2063 19.3105 74.7785 22.6625 75.1233 26.9102Z"
      fill="#EE964B" />
    <path
      d="M71.011 13.7946C71.011 16.8415 68.5407 19.3118 65.4938 19.3118C62.4469 19.3118 59.9766 16.8415 59.9766 13.7946C59.9766 10.7477 62.4469 8.27734 65.4938 8.27734C68.5407 8.27734 71.011 10.7477 71.011 13.7946Z"
      fill="#EE964B" />
    <path
      d="M47.5634 80.0003C43.8942 80.0003 40.5288 78.7038 37.9082 76.5386C38.2665 72.3036 41.8394 68.9658 46.1565 68.9658H48.9151C53.2463 68.9658 56.8185 72.3178 57.1633 76.5655L57.1775 76.5796C54.5562 78.7173 51.2184 80.0003 47.5634 80.0003Z"
      fill="#FFCA55" />
    <path
      d="M53.053 63.4479C53.053 66.4948 50.5827 68.9651 47.5358 68.9651C44.4889 68.9651 42.0186 66.4948 42.0186 63.4479C42.0186 60.401 44.4889 57.9307 47.5358 57.9307C50.5827 57.9307 53.053 60.401 53.053 63.4479Z"
      fill="#FFCA55" />
    <path
      d="M39.2877 0.000976562C42.336 0.000976562 44.805 2.47 44.805 5.51822C44.805 6.1944 44.6811 6.82883 44.4602 7.4215C43.6877 9.53223 41.6605 11.0355 39.2877 11.0355C36.2395 11.0355 33.7705 8.56644 33.7705 5.51822C33.7705 2.47 36.2395 0.000976562 39.2877 0.000976562Z"
      fill="#DEDEE6" />
    <path
      d="M19.9774 49.6566C17.3017 49.6566 14.7916 48.9669 12.6121 47.7533C11.7979 47.3115 11.0395 46.7875 10.3223 46.1948C10.6806 41.9599 14.2534 38.6221 18.5705 38.6221H21.3291C25.6604 38.6221 29.2326 41.974 29.5774 46.2217L29.5915 46.2359C26.9703 48.3736 23.6325 49.6566 19.9774 49.6566Z"
      fill="#5DBCD9" />
    <path
      d="M25.4661 33.1042C25.4661 36.151 22.9958 38.6214 19.9489 38.6214C16.902 38.6214 14.4316 36.151 14.4316 33.1042C14.4316 30.0573 16.902 27.5869 19.9489 27.5869C22.9958 27.5869 25.4661 30.0573 25.4661 33.1042Z"
      fill="#5DBCD9" />
    <path
      d="M18.5973 77.2415C15.5491 77.2415 13.0801 74.7725 13.0801 71.7243C13.0801 68.6761 15.5491 66.207 18.5973 66.207C21.2044 66.207 23.3838 68.014 23.963 70.4413C24.0593 70.8555 24.1146 71.2831 24.1146 71.7243C24.1146 74.7725 21.6455 77.2415 18.5973 77.2415Z"
      fill="#DEDEE6" />
    <path
      d="M6.18423 53.7939C7.15002 53.7939 8.07405 54.0425 8.86001 54.4971C10.5565 55.4352 11.7015 57.2422 11.7015 59.3112C11.7015 62.3594 9.23246 64.8284 6.18423 64.8284C3.13601 64.8284 0.666992 62.3594 0.666992 59.3112C0.666992 56.263 3.13601 53.7939 6.18423 53.7939Z"
      fill="#DEDEE6" />
    <path
      d="M6.18423 0.000976562C9.23246 0.000976562 11.7015 2.47 11.7015 5.51822C11.7015 7.71111 10.4185 9.61507 8.55694 10.4839C7.83968 10.8422 7.02542 11.0355 6.18423 11.0355C3.13601 11.0355 0.666992 8.56644 0.666992 5.51822C0.666992 2.47 3.13601 0.000976562 6.18423 0.000976562Z"
      fill="#DEDEE6" />
    <path d="M7.30957 11.074L9.80081 9.88867L14.6971 20.1783L12.2059 21.3636L7.30957 11.074Z"
      fill="#45639C" />
    <path d="M7.65137 53.8231L11.4034 47.0801L13.8138 48.421L10.0618 55.1647L7.65137 53.8231Z"
      fill="#45639C" />
    <path d="M43.9814 8.7136L44.9371 6.12402L51.7367 8.6348L50.781 11.2244L43.9814 8.7136Z"
      fill="#45639C" />
    <path d="M51.4277 50.0848L59.0335 28.9775L61.6278 29.9117L54.022 51.0196L51.4277 50.0848Z"
      fill="#45639C" />
    <path d="M59.5234 55.4072L69.7746 48.749L71.2779 51.0638L61.0273 57.7219L59.5234 55.4072Z"
      fill="#45639C" />
    <path d="M29.1592 46.6387L31.2012 44.7832L38.3732 52.6745L36.3319 54.53L29.1592 46.6387Z"
      fill="#45639C" />
    <path d="M23.6396 69.0973L32.4806 66.998L33.117 69.6806L24.2768 71.7798L23.6396 69.0973Z"
      fill="#45639C" />
    <path d="M33.4092 27.2782L50.9846 19.832L52.0609 22.3724L34.4854 29.8179L33.4092 27.2782Z"
      fill="#45639C" />
  </g>
  <defs>
    <clipPath id="clip0_168_7769">
      <rect width="80" height="80" fill="white" transform="translate(0.666992 0.000976562)" />
    </clipPath>
  </defs>
</svg>
