<svg width="81" height="80" viewBox="0 0 81 80" fill="none" xmlns="http://www.w3.org/2000/svg">
  <g clip-path="url(#clip0_168_7893)">
    <path
      d="M59.6815 74.6438L53.8027 74.6437L55.7069 66.5166L59.6815 69.8151C61.0155 69.8159 62.0959 70.8968 62.0959 72.2294C62.0951 73.5635 61.0155 74.6445 59.6815 74.6438Z"
      fill="#D97C5B" />
    <path
      d="M56.5879 69.8136L58.4921 61.6865L62.6917 64.9847C64.0257 64.9855 65.1061 66.0664 65.1061 67.399C65.1053 68.7331 64.0259 69.8142 62.6918 69.8134L56.5879 69.8136Z"
      fill="#EC8E6B" />
    <path
      d="M59.3789 64.9855L61.2831 56.8584L65.7077 60.1564C67.0418 60.1572 68.1222 61.2381 68.1222 62.5707C68.1214 63.9048 67.0419 64.986 65.7079 64.9852L59.3789 64.9855Z"
      fill="#FFB991" />
    <path
      d="M28.043 55.3281L39.8421 69.8139C41.5673 72.8021 44.7557 74.6429 48.206 74.6429L53.7992 74.6427L56.5871 69.8139L28.043 55.3281Z"
      fill="#EC8E6B" />
    <path
      d="M68.7167 55.3284H65.9019L55.6894 48.873L48.9665 51.1233C47.739 51.5335 46.6065 52.1881 45.6347 53.0472L40.3258 57.742L28.043 55.3287L37.0658 64.9856C38.791 67.9737 41.9794 69.8145 45.4297 69.8145H56.5871L62.1629 60.157L68.7167 60.1566C70.0508 60.1574 71.1303 59.0762 71.131 57.7422C71.131 56.4091 70.0508 55.329 68.7167 55.3284Z"
      fill="#FFA07A" />
    <path
      d="M80.0041 40.5642L77.0646 45.6553L70.9785 39.9427L75.8223 38.1499C76.4899 36.995 77.9663 36.5998 79.1204 37.266C80.2753 37.9337 80.6718 39.4093 80.0041 40.5642Z"
      fill="#FFA07A" />
    <path
      d="M74.2775 40.826L68.1914 35.1134L73.1475 33.1255C73.8152 31.9706 75.2915 31.5754 76.4457 32.2416C77.6006 32.9093 77.9972 34.3849 77.3295 35.5398L74.2775 40.826Z"
      fill="#FFB991" />
    <path
      d="M71.4864 35.9975L65.4004 30.2849L70.4688 28.102C71.1365 26.9471 72.6129 26.552 73.767 27.2182C74.9219 27.8859 75.3185 29.3614 74.6508 30.5163L71.4864 35.9975Z"
      fill="#FFE5D4" />
    <path
      d="M60.334 55.3276H65.9042C69.3546 55.3276 72.543 53.486 74.268 50.4979L77.0644 45.654L74.2765 40.8252L60.334 55.3276Z"
      fill="#FFB991" />
    <path
      d="M67.7942 23.0779L66.3867 25.5156L55.69 31.1322L54.2774 38.0794C54.0189 39.3475 54.0195 40.6557 54.2776 41.9268L55.6889 48.8719L51.9629 55.3277H60.3319C63.7823 55.3277 66.9707 53.4762 68.6958 50.488L74.2745 40.8253L68.6987 31.1678L71.9752 25.4917C72.6429 24.3368 72.2465 22.8613 71.0914 22.1936C69.9374 21.5275 68.4619 21.923 67.7942 23.0779Z"
      fill="#FFCEB0" />
    <path
      d="M60.6526 5.92345L63.5918 11.0148L55.6016 13.4292L56.4708 8.33792C55.8044 7.18219 56.2003 5.70615 57.3545 5.03976C58.5102 4.37337 59.9862 4.76773 60.6526 5.92345Z"
      fill="#B05638" />
    <path
      d="M58.0176 11.0142L50.0273 13.4287L50.7839 8.1426C50.1175 6.98688 50.5135 5.51084 51.6676 4.84445C52.8233 4.17806 54.2993 4.57242 54.9657 5.72814L58.0176 11.0142Z"
      fill="#C56A4B" />
    <path
      d="M52.4375 11.0146L44.4473 13.4291L45.0911 7.94827C44.4247 6.79254 44.8207 5.3165 45.9748 4.65011C47.1305 3.98372 48.6066 4.37808 49.273 5.5338L52.4375 11.0146Z"
      fill="#EC8E6B" />
    <path
      d="M63.6056 30.3395L66.3908 25.5156C68.116 22.5274 68.1153 18.8455 66.3901 15.8574L63.5934 11.0137H58.0176L63.6056 30.3395Z"
      fill="#C56A4B" />
    <path
      d="M39.4037 7.75295L40.8111 10.1906L40.3276 22.2623L45.6378 26.9592C46.6068 27.8171 47.74 28.4707 48.9698 28.8827L55.69 31.133L59.418 37.5877L63.6024 30.3399C65.3276 27.3518 65.3183 23.6647 63.593 20.6766L58.0142 11.0141H46.8626L43.5854 5.33849C42.919 4.18277 41.4429 3.78841 40.2872 4.4548C39.1333 5.12119 38.7373 6.59723 39.4037 7.75295Z"
      fill="#D97C5B" />
    <path
      d="M20.9789 5.36035L26.8576 5.36051L24.9534 13.4874L20.9789 10.189C19.6448 10.1882 18.5645 9.10728 18.5645 7.77465C18.5654 6.44074 19.6448 5.35955 20.9789 5.36035Z"
      fill="#EC8E6B" />
    <path
      d="M24.069 10.1895L22.1648 18.3165L17.9652 15.0184C16.6312 15.0176 15.5508 13.9367 15.5508 12.6041C15.5516 11.27 16.631 10.1888 17.9651 10.1896L24.069 10.1895Z"
      fill="#FFA07A" />
    <path
      d="M21.2804 15.0195L19.3762 23.1465L14.9516 19.8485C13.6175 19.8477 12.5371 18.7668 12.5371 17.4342C12.5379 16.1001 13.6173 15.0189 14.9514 15.0197L21.2804 15.0195Z"
      fill="#FFCEB0" />
    <path
      d="M43.5877 15.0182L40.8112 10.1893C39.086 7.20114 35.8976 5.36035 32.4473 5.36035L26.8543 5.36051L24.0664 10.1893L43.5877 15.0182Z"
      fill="#FFA07A" />
    <path
      d="M11.9395 24.6764L15.256 24.6772L24.967 31.1309L31.6898 28.8806C32.9173 28.4705 34.0499 27.8158 35.0216 26.9568L40.3306 22.2619L47.7845 22.2608L43.5906 15.0184C41.8653 12.0302 38.677 10.1895 35.2267 10.1895H24.0693L18.4935 19.847L11.9397 19.8473C10.6056 19.8465 9.52603 20.9277 9.52539 22.2618C9.52523 23.5947 10.6055 24.6757 11.9395 24.6764Z"
      fill="#FFB991" />
    <path
      d="M0.652461 39.4407L3.59199 34.3496L9.67804 40.0622L4.83431 41.855C4.16663 43.01 2.69027 43.4051 1.53615 42.7389C0.381237 42.0711 -0.015218 40.5957 0.652461 39.4407Z"
      fill="#FFBF5E" />
    <path
      d="M6.37829 39.1787L12.4643 44.8912L7.50826 46.8791C6.84058 48.034 5.36422 48.4292 4.2101 47.7629C3.05518 47.0953 2.65857 45.6197 3.32625 44.4648L6.37829 39.1787Z"
      fill="#FFD663" />
    <path
      d="M9.16822 44.0068L15.2543 49.7195L10.186 51.9023C9.51831 53.0572 8.04195 53.4524 6.88784 52.7861C5.73292 52.1185 5.3363 50.6429 6.00398 49.488L9.16822 44.0068Z"
      fill="#FEFFAD" />
    <path
      d="M20.3223 24.6877L14.7521 24.6777C11.3017 24.6777 8.11328 26.5185 6.38823 29.5067L3.5918 34.3506L6.3797 39.1793L20.3223 24.6877Z"
      fill="#FFD663" />
    <path
      d="M12.8619 56.9271L14.2692 54.4893L24.9653 48.8722L26.3779 41.925C26.6364 40.657 26.6358 39.3488 26.3778 38.0777L24.9664 31.1325L28.6924 24.6768L20.3234 24.6875C16.873 24.6875 13.6846 26.5283 11.9596 29.5165L6.38086 39.1791L11.9567 48.8367L8.68007 54.5128C8.01239 55.6677 8.40885 57.1432 9.56393 57.8109C10.7179 58.4771 12.1942 58.082 12.8619 56.9271Z"
      fill="#FFF06E" />
    <path
      d="M20.0017 74.081L17.0625 68.9897L25.0528 66.5752L24.1836 71.6665C24.8499 72.8222 24.454 74.2983 23.2999 74.9646C22.1441 75.631 20.6681 75.2367 20.0017 74.081Z"
      fill="#B05638" />
    <path
      d="M22.6406 68.9897L30.6309 66.5752L29.8744 71.8613C30.5407 73.017 30.1448 74.493 28.9907 75.1594C27.8349 75.8258 26.3589 75.4314 25.6925 74.2757L22.6406 68.9897Z"
      fill="#C56A4B" />
    <path
      d="M28.2168 68.9897L36.2071 66.5752L35.5632 72.056C36.2296 73.2118 35.8336 74.6878 34.6795 75.3542C33.5238 76.0206 32.0477 75.6262 31.3814 74.4705L28.2168 68.9897Z"
      fill="#EC8E6B" />
    <path
      d="M17.0622 49.6709L14.2685 54.4898C12.5433 57.478 12.5433 61.1596 14.2685 64.1477L17.0653 68.9914H22.6411L17.0622 49.6709Z"
      fill="#C56A4B" />
    <path
      d="M41.2509 72.2517L32.8732 57.7427L40.3269 57.7424L35.0167 53.0455C34.0477 52.1875 32.9145 51.534 31.6848 51.1219L24.9645 48.8717L21.2366 42.417L17.0615 49.6702C15.3363 52.6583 15.3363 56.3399 17.0615 59.328L22.6403 68.9906H33.7919L37.0692 74.6662C37.7356 75.8219 39.2116 76.2162 40.3673 75.5499C41.5213 74.8835 41.9173 73.4074 41.2509 72.2517Z"
      fill="#D97C5B" />
  </g>
  <defs>
    <clipPath id="clip0_168_7893">
      <rect width="80" height="80" fill="white" transform="translate(0.333984 0.000976562)" />
    </clipPath>
  </defs>
</svg>
