<svg xmlns="http://www.w3.org/2000/svg" fill="none" viewBox="0 0 81 80">
  <g clip-path="url(#a)">
    <path fill="#D97C5B"
      d="M59.681 74.644h-5.878l1.904-8.127 3.974 3.298a2.415 2.415 0 0 1 0 4.829Z" />
    <path fill="#EC8E6B" d="m56.588 69.814 1.904-8.127 4.2 3.298a2.415 2.415 0 0 1 0 4.828h-6.104Z" />
    <path fill="#FFB991" d="m59.379 64.986 1.904-8.128 4.425 3.298a2.415 2.415 0 0 1 0 4.83h-6.33Z" />
    <path fill="#EC8E6B"
      d="m28.043 55.328 11.8 14.486a9.658 9.658 0 0 0 8.363 4.829h5.593l2.788-4.83-28.544-14.485Z" />
    <path fill="#FFA07A"
      d="M68.717 55.328h-2.815l-10.213-6.455-6.722 2.25a9.648 9.648 0 0 0-3.332 1.924l-5.31 4.695-12.282-2.413 9.023 9.657a9.658 9.658 0 0 0 8.364 4.828h11.157l5.576-9.657h6.554a2.413 2.413 0 1 0 0-4.829Zm11.287-14.764-2.94 5.091-6.085-5.712 4.843-1.793a2.415 2.415 0 0 1 4.182 2.414Z" />
    <path fill="#FFB991"
      d="m74.278 40.826-6.087-5.713 4.956-1.987a2.415 2.415 0 0 1 4.182 2.414l-3.051 5.286Z" />
    <path fill="#FFE5D4"
      d="M71.486 35.998 65.4 30.285l5.069-2.183a2.415 2.415 0 0 1 4.182 2.414l-3.165 5.482Z" />
    <path fill="#FFB991"
      d="M60.334 55.328h5.57a9.658 9.658 0 0 0 8.364-4.83l2.796-4.844-2.787-4.829-13.943 14.503Z" />
    <path fill="#FFCEB0"
      d="m67.794 23.078-1.407 2.438-10.697 5.616-1.413 6.947a9.648 9.648 0 0 0 0 3.848l1.412 6.945-3.726 6.456h8.369a9.668 9.668 0 0 0 8.364-4.84l5.579-9.663-5.576-9.657 3.276-5.676a2.413 2.413 0 1 0-4.18-2.414Z" />
    <path fill="#B05638"
      d="m60.653 5.923 2.939 5.092-7.99 2.414.869-5.091a2.415 2.415 0 0 1 4.182-2.415Z" />
    <path fill="#C56A4B"
      d="m58.018 11.014-7.99 2.415.756-5.286a2.415 2.415 0 0 1 4.182-2.415l3.052 5.286Z" />
    <path fill="#EC8E6B"
      d="m52.438 11.015-7.99 2.414.643-5.48a2.415 2.415 0 0 1 4.182-2.415l3.164 5.48Z" />
    <path fill="#C56A4B"
      d="m63.606 30.34 2.785-4.824a9.659 9.659 0 0 0 0-9.659l-2.798-4.843h-5.575l5.588 19.326Z" />
    <path fill="#D97C5B"
      d="m39.404 7.753 1.407 2.438-.483 12.071 5.31 4.697a9.649 9.649 0 0 0 3.332 1.924l6.72 2.25 3.728 6.455 4.184-7.248a9.668 9.668 0 0 0-.009-9.663l-5.579-9.663H46.863l-3.278-5.676a2.414 2.414 0 1 0-4.181 2.415Z" />
    <path fill="#EC8E6B" d="M20.979 5.36h5.879l-1.905 8.127-3.974-3.298a2.415 2.415 0 0 1 0-4.829Z" />
    <path fill="#FFA07A" d="m24.069 10.19-1.904 8.127-4.2-3.299a2.415 2.415 0 0 1 0-4.828h6.104Z" />
    <path fill="#FFCEB0" d="m21.28 15.02-1.904 8.127-4.424-3.298a2.415 2.415 0 0 1 0-4.83h6.328Z" />
    <path fill="#FFA07A"
      d="M43.588 15.018 40.81 10.19a9.658 9.658 0 0 0-8.364-4.829h-5.593l-2.788 4.83 19.522 4.828Z" />
    <path fill="#FFB991"
      d="m11.94 24.676 3.316.001 9.711 6.454 6.723-2.25a9.647 9.647 0 0 0 3.332-1.924l5.309-4.695 7.453-.001-4.193-7.243a9.658 9.658 0 0 0-8.364-4.829H24.069l-5.575 9.658H11.94a2.413 2.413 0 1 0 0 4.83Z" />
    <path fill="#FFBF5E"
      d="m.652 39.44 2.94-5.09 6.086 5.712-4.844 1.793a2.415 2.415 0 0 1-4.182-2.414Z" />
    <path fill="#FFD663"
      d="m6.378 39.179 6.086 5.712-4.956 1.988a2.415 2.415 0 0 1-4.182-2.414l3.052-5.286Z" />
    <path fill="#FEFFAD"
      d="m9.168 44.007 6.086 5.712-5.068 2.183a2.415 2.415 0 0 1-4.182-2.414l3.164-5.481Z" />
    <path fill="#FFD663"
      d="m20.322 24.688-5.57-.01a9.658 9.658 0 0 0-8.364 4.829L3.592 34.35l2.788 4.828 13.942-14.491Z" />
    <path fill="#FFF06E"
      d="m12.862 56.927 1.407-2.438 10.696-5.617 1.413-6.947a9.65 9.65 0 0 0 0-3.847l-1.412-6.946 3.726-6.455-8.369.01a9.657 9.657 0 0 0-8.363 4.83l-5.58 9.662 5.577 9.658-3.277 5.676a2.414 2.414 0 1 0 4.182 2.414Z" />
    <path fill="#B05638"
      d="m20.002 74.081-2.94-5.091 7.99-2.415-.868 5.091a2.415 2.415 0 0 1-4.182 2.415Z" />
    <path fill="#C56A4B"
      d="m22.64 68.99 7.99-2.415-.756 5.286a2.415 2.415 0 0 1-4.181 2.415L22.64 68.99Z" />
    <path fill="#EC8E6B"
      d="m28.217 68.99 7.99-2.415-.644 5.481a2.415 2.415 0 0 1-4.182 2.415l-3.164-5.481Z" />
    <path fill="#C56A4B"
      d="m17.062 49.67-2.794 4.82a9.658 9.658 0 0 0 0 9.658l2.797 4.843h5.576l-5.579-19.32Z" />
    <path fill="#D97C5B"
      d="m41.25 72.252-8.377-14.51h7.454l-5.31-4.697a9.65 9.65 0 0 0-3.332-1.923l-6.72-2.25-3.728-6.455-4.175 7.253a9.658 9.658 0 0 0 0 9.658l5.578 9.663h11.152l3.277 5.675a2.414 2.414 0 1 0 4.182-2.414Z" />
  </g>
  <defs>
    <clipPath id="a">
      <path fill="#fff" d="M.334.001h80v80h-80z" />
    </clipPath>
  </defs>
</svg>
